<svg width="9" height="7" viewBox="0 0 9 7" fill="none" xmlns="http://www.w3.org/2000/svg">
<path d="M2.80784 6.17592H6.26938C7.60554 6.17592 8.69246 4.95551 8.69246 3.45527C8.69246 1.95502 7.60554 0.734619 6.26938 0.734619H2.80784C1.47169 0.734619 0.384766 1.95502 0.384766 3.45527C0.384766 4.95551 1.47169 6.17592 2.80784 6.17592ZM7.30784 3.45527C7.30784 4.09812 6.84192 4.62126 6.26938 4.62126H5.23092V2.28928H6.26938C6.84192 2.28928 7.30784 2.81242 7.30784 3.45527ZM2.80784 2.28928H3.8463V4.62126H2.80784C2.2353 4.62126 1.76938 4.09812 1.76938 3.45527C1.76938 2.81242 2.2353 2.28928 2.80784 2.28928Z" fill="#2B7FFF"/>
</svg>
